<?xml version="1.0" encoding="utf-8"?>
<!-- Generator: Adobe Illustrator 26.0.3, SVG Export Plug-In . SVG Version: 6.00 Build 0)  -->
<svg version="1.1" id="Layer_1" xmlns="http://www.w3.org/2000/svg" xmlns:xlink="http://www.w3.org/1999/xlink" x="0px" y="0px"
	 viewBox="0 0 19 15" style="enable-background:new 0 0 19 15;" xml:space="preserve">
<style type="text/css">
	.st0{fill:#FFFFFF;}
</style>
<path class="st0" d="M16.41,0H2.59C1.16,0,0,1.12,0,2.5v10C0,13.88,1.16,15,2.59,15h13.82c1.43,0,2.59-1.12,2.59-2.5v-10
	C19,1.12,17.84,0,16.41,0z M16.41,1.67c0.1,0,0.2,0.02,0.28,0.05L9.5,7.27L2.31,1.71C2.4,1.68,2.49,1.67,2.59,1.67H16.41z
	 M16.41,13.33H2.59c-0.23,0-0.45-0.09-0.61-0.24c-0.16-0.16-0.25-0.37-0.25-0.59V3.4l7.23,5.58C9.12,9.11,9.31,9.17,9.5,9.17
	c0.19,0,0.38-0.06,0.54-0.18l7.23-5.58v9.1c0,0.22-0.09,0.43-0.25,0.59C16.86,13.25,16.64,13.33,16.41,13.33z"/>
</svg>
